<svg width="40" height="40" viewBox="0 0 40 40" fill="none" xmlns="http://www.w3.org/2000/svg">
<g clip-path="url(#clip0_71_838)">
<path d="M10.5017 10.0002C11.5908 9.99997 12.6635 10.2666 13.6257 10.7768C14.588 11.287 15.4106 12.0252 16.0217 12.9268L16.2183 13.2368L23.3067 25.0485C23.5792 25.503 23.9561 25.8861 24.4063 26.1658C24.8564 26.4455 25.3668 26.6138 25.895 26.6568L26.1667 26.6668H28.1567L28.19 25.9752L28.2267 25.3752L28.2467 25.1102C28.2917 24.5335 28.8333 24.1818 29.2983 24.4268L29.8083 24.7002L30.4083 25.0385L30.7383 25.2335L31.455 25.6718L31.8367 25.9168L32.6083 26.4335L32.9583 26.6785L33.5867 27.1335L34.1117 27.5335L34.3333 27.7068C34.7267 28.0202 34.7083 28.6502 34.295 28.9768L33.8283 29.3385L33.2617 29.7585L32.595 30.2285L31.835 30.7368L31.065 31.2218L30.3717 31.6368L29.7633 31.9785L29.2517 32.2535C28.7933 32.4918 28.2983 32.1935 28.255 31.6535L28.2133 31.0752L28.1733 30.3835L28.1567 30.0002H26.1667C25.0775 30.0004 24.0049 29.7337 23.0426 29.2235C22.0803 28.7133 21.2577 27.9751 20.6467 27.0735L20.45 26.7635L13.3617 14.9518C13.0892 14.4973 12.7122 14.1143 12.262 13.8346C11.8119 13.5549 11.3016 13.3865 10.7733 13.3435L10.5 13.3335H6.66667C6.24187 13.333 5.83328 13.1704 5.52439 12.8788C5.21549 12.5871 5.02961 12.1886 5.00471 11.7645C4.97982 11.3404 5.11779 10.9229 5.39044 10.5971C5.66309 10.2714 6.04984 10.062 6.47167 10.0118L6.66667 10.0002H10.5017ZM16.6917 22.7385C17.07 22.9662 17.3425 23.3347 17.4493 23.7631C17.5562 24.1915 17.4887 24.6448 17.2617 25.0235L16.2183 26.7635C15.626 27.7507 14.7882 28.5677 13.7863 29.1349C12.7845 29.7021 11.6529 30.0002 10.5017 30.0002H6.66667C6.22464 30.0002 5.80072 29.8246 5.48816 29.512C5.17559 29.1995 5 28.7755 5 28.3335C5 27.8915 5.17559 27.4676 5.48816 27.155C5.80072 26.8424 6.22464 26.6668 6.66667 26.6668H10.5017C11.0773 26.6668 11.6431 26.5178 12.144 26.2342C12.6449 25.9506 13.0638 25.5421 13.36 25.0485L14.405 23.3102C14.6321 22.9313 15.0004 22.6581 15.4288 22.5506C15.8573 22.4431 16.3109 22.5101 16.69 22.7368L16.6917 22.7385ZM29.2967 7.75851L29.8067 8.03351L30.4067 8.37184L30.7367 8.56684L31.4533 9.00517L31.835 9.25017L32.6067 9.76684L32.9567 10.0118L33.585 10.4668L34.11 10.8668L34.3317 11.0402C34.725 11.3535 34.7067 11.9835 34.2933 12.3102L33.8267 12.6718L33.26 13.0918C33.0533 13.2418 32.8317 13.3985 32.5933 13.5618L31.8333 14.0702L31.0633 14.5552L30.37 14.9702L29.7617 15.3135L29.25 15.5868C28.7917 15.8252 28.2967 15.5268 28.2533 14.9868L28.2117 14.4085L28.1717 13.7168L28.155 13.3335H26.1667C25.6364 13.3333 25.1138 13.4597 24.6422 13.702C24.1706 13.9443 23.7636 14.2957 23.455 14.7268L23.3083 14.9518L22.265 16.6902C22.0475 17.0571 21.6975 17.3267 21.2872 17.4433C20.8769 17.56 20.4375 17.5149 20.0594 17.3173C19.6813 17.1198 19.3934 16.7848 19.2549 16.3813C19.1165 15.9778 19.138 15.5366 19.315 15.1485L19.4067 14.9752L20.45 13.2368C21.0102 12.3031 21.7906 11.5208 22.7229 10.9584C23.6552 10.3959 24.7111 10.0703 25.7983 10.0102L26.165 10.0002H28.1567L28.19 9.30851L28.2267 8.70851L28.2467 8.44351C28.2917 7.86684 28.8333 7.51517 29.2983 7.76017L29.2967 7.75851Z" fill="#A0A0A0"/>
</g>
<defs>
<clipPath id="clip0_71_838">
<rect width="40" height="40" fill="white"/>
</clipPath>
</defs>
</svg>
