<svg width="40" height="40" viewBox="0 0 40 40" fill="none" xmlns="http://www.w3.org/2000/svg">
<g clip-path="url(#clip0_71_842)">
<path d="M26.5783 5.11001C26.6233 4.53334 27.165 4.18168 27.63 4.42668L28.14 4.70001L28.74 5.03834L29.07 5.23334L29.7867 5.67168L30.1683 5.91668L30.94 6.43334L31.29 6.67834L31.9183 7.13335L32.4433 7.53334L32.665 7.70668C33.0583 8.02001 33.04 8.65001 32.6267 8.97668L32.16 9.33835L31.5933 9.75834L30.9267 10.2283L30.1667 10.7367L29.3967 11.2217L28.7033 11.6367L28.095 11.9783L27.5833 12.2533C27.125 12.4917 26.63 12.1933 26.5867 11.6533L26.545 11.075L26.505 10.3833L26.4883 10H11.6667C10.8257 9.99975 10.0157 10.3174 9.39909 10.8892C8.78245 11.461 8.40474 12.2448 8.34167 13.0833L8.33333 13.3333V26.6667C8.33307 27.5076 8.65068 28.3176 9.22249 28.9343C9.79431 29.5509 10.5781 29.9286 11.4167 29.9917L11.6667 30H28.3333C29.1743 30.0003 29.9843 29.6827 30.6009 29.1108C31.2175 28.539 31.5953 27.7553 31.6583 26.9167L31.6667 26.6667V18.3333C31.6671 17.9085 31.8298 17.5 32.1214 17.1911C32.413 16.8822 32.8116 16.6963 33.2357 16.6714C33.6597 16.6465 34.0773 16.7845 34.4031 17.0571C34.7288 17.3298 34.9382 17.7165 34.9883 18.1383L35 18.3333V26.6667C35 28.3771 34.3426 30.0221 33.1638 31.2614C31.985 32.5007 30.3749 33.2395 28.6667 33.325L28.3333 33.3333H11.6667C9.95626 33.3333 8.31129 32.676 7.07198 31.4971C5.83267 30.3183 5.09385 28.7083 5.00833 27L5 26.6667V13.3333C5 11.6229 5.65739 9.97796 6.83621 8.73866C8.01502 7.49935 9.62507 6.76053 11.3333 6.67501L11.6667 6.66668H26.4883L26.5217 5.97501L26.5583 5.37501L26.5783 5.11001ZM21.6667 16.6983V25C21.6667 25.442 21.4911 25.866 21.1785 26.1785C20.8659 26.4911 20.442 26.6667 20 26.6667C19.558 26.6667 19.134 26.4911 18.8215 26.1785C18.5089 25.866 18.3333 25.442 18.3333 25V19.7767C17.9586 19.9939 17.5139 20.0566 17.0937 19.9516C16.6734 19.8467 16.3106 19.5822 16.082 19.2143C15.8534 18.8463 15.777 18.4038 15.869 17.9806C15.9611 17.5573 16.2143 17.1865 16.575 16.9467L19.05 15.2967C19.3035 15.1278 19.598 15.0309 19.9022 15.0162C20.2064 15.0015 20.5089 15.0696 20.7775 15.2133C21.046 15.357 21.2705 15.5708 21.4271 15.8321C21.5837 16.0933 21.6665 16.3921 21.6667 16.6967V16.6983Z" fill="white"/>
</g>
<defs>
<clipPath id="clip0_71_842">
<rect width="40" height="40" fill="white"/>
</clipPath>
</defs>
</svg>
