<svg width="36" height="36" viewBox="0 0 36 36" fill="none" xmlns="http://www.w3.org/2000/svg">
<path d="M8.25003 22.4999C9.56267 22.4924 10.8252 21.9949 11.79 21.1049L21.18 26.4749C21.0604 26.8893 20.9998 27.3185 21 27.7499C20.9904 28.9672 21.4005 30.1506 22.1613 31.101C22.9221 32.0513 23.9871 32.7105 25.177 32.9675C26.367 33.2245 27.6091 33.0636 28.6943 32.5119C29.7795 31.9603 30.6414 31.0516 31.1351 29.9388C31.6287 28.826 31.7238 27.5771 31.4043 26.4024C31.0849 25.2277 30.3705 24.199 29.3813 23.4894C28.3922 22.7798 27.1887 22.4327 25.9736 22.5065C24.7585 22.5804 23.606 23.0707 22.71 23.8949L13.32 18.5249C13.4334 18.1552 13.4939 17.7715 13.5 17.3849L22.725 12.1049C23.6161 12.9101 24.757 13.3845 25.9563 13.4484C27.1557 13.5123 28.3405 13.1619 29.3121 12.456C30.2838 11.75 30.9831 10.7314 31.2929 9.57096C31.6026 8.41055 31.5039 7.17893 31.0134 6.08264C30.5228 4.98636 29.6702 4.09209 28.5986 3.54982C27.5269 3.00755 26.3014 2.85025 25.1276 3.10431C23.9537 3.35838 22.9029 4.00835 22.1514 4.94521C21.3999 5.88208 20.9934 7.04886 21 8.24988C21.0051 8.68084 21.0656 9.10935 21.18 9.52488L12.645 14.3999C12.1505 13.6348 11.4654 13.0116 10.6571 12.5915C9.84872 12.1714 8.94499 11.9688 8.03467 12.0038C7.12435 12.0387 6.23879 12.3099 5.46503 12.7907C4.69127 13.2715 4.05593 13.9454 3.62147 14.7461C3.18701 15.5468 2.96838 16.4468 2.98707 17.3576C3.00575 18.2684 3.26112 19.1586 3.72806 19.9409C4.195 20.7231 4.85744 21.3703 5.65027 21.819C6.44311 22.2677 7.33905 22.5023 8.25003 22.4999ZM26.25 25.4999C26.695 25.4999 27.1301 25.6318 27.5001 25.8791C27.8701 26.1263 28.1585 26.4777 28.3288 26.8888C28.4991 27.3 28.5436 27.7524 28.4568 28.1888C28.37 28.6253 28.1557 29.0262 27.841 29.3409C27.5264 29.6555 27.1254 29.8698 26.689 29.9566C26.2525 30.0435 25.8001 29.9989 25.389 29.8286C24.9779 29.6583 24.6265 29.3699 24.3792 28.9999C24.132 28.6299 24 28.1949 24 27.7499C24 27.1531 24.2371 26.5808 24.659 26.1589C25.081 25.7369 25.6533 25.4999 26.25 25.4999ZM26.25 5.99988C26.695 5.99988 27.1301 6.13184 27.5001 6.37907C27.8701 6.6263 28.1585 6.97771 28.3288 7.38884C28.4991 7.79997 28.5436 8.25237 28.4568 8.68883C28.37 9.12529 28.1557 9.5262 27.841 9.84087C27.5264 10.1555 27.1254 10.3698 26.689 10.4566C26.2525 10.5435 25.8001 10.4989 25.389 10.3286C24.9779 10.1583 24.6265 9.86992 24.3792 9.49991C24.132 9.1299 24 8.69488 24 8.24988C24 7.65314 24.2371 7.08084 24.659 6.65889C25.081 6.23693 25.6533 5.99988 26.25 5.99988ZM8.25003 14.9999C8.69504 14.9999 9.13005 15.1318 9.50006 15.3791C9.87008 15.6263 10.1585 15.9777 10.3288 16.3888C10.4991 16.8 10.5436 17.2524 10.4568 17.6888C10.37 18.1253 10.1557 18.5262 9.84102 18.8409C9.52635 19.1555 9.12544 19.3698 8.68898 19.4566C8.25253 19.5435 7.80013 19.4989 7.38899 19.3286C6.97786 19.1583 6.62646 18.8699 6.37922 18.4999C6.13199 18.1299 6.00003 17.6949 6.00003 17.2499C6.00003 16.6531 6.23708 16.0808 6.65904 15.6589C7.081 15.2369 7.65329 14.9999 8.25003 14.9999Z" fill="white"/>
</svg>
