<svg width="48" height="48" viewBox="0 0 48 48" fill="none" xmlns="http://www.w3.org/2000/svg">
<g clip-path="url(#clip0_71_850)">
<path d="M24 4C35.046 4 44 12.954 44 24C44 35.046 35.046 44 24 44C12.954 44 4 35.046 4 24C4 12.954 12.954 4 24 4ZM20 16C19.5101 16.0001 19.0373 16.1799 18.6713 16.5054C18.3052 16.8309 18.0713 17.2795 18.014 17.766L18 18V30C18.0006 30.5098 18.1958 31.0001 18.5457 31.3707C18.8956 31.7414 19.3739 31.9645 19.8828 31.9943C20.3917 32.0242 20.8928 31.8587 21.2837 31.5315C21.6746 31.2043 21.9258 30.7402 21.986 30.234L22 30V18C22 17.4696 21.7893 16.9609 21.4142 16.5858C21.0391 16.2107 20.5304 16 20 16ZM28 16C27.4696 16 26.9609 16.2107 26.5858 16.5858C26.2107 16.9609 26 17.4696 26 18V30C26 30.5304 26.2107 31.0391 26.5858 31.4142C26.9609 31.7893 27.4696 32 28 32C28.5304 32 29.0391 31.7893 29.4142 31.4142C29.7893 31.0391 30 30.5304 30 30V18C30 17.4696 29.7893 16.9609 29.4142 16.5858C29.0391 16.2107 28.5304 16 28 16Z" fill="white"/>
</g>
<defs>
<clipPath id="clip0_71_850">
<rect width="48" height="48" fill="white"/>
</clipPath>
</defs>
</svg>
