<svg width="40" height="40" viewBox="0 0 40 40" fill="none" xmlns="http://www.w3.org/2000/svg">
<g clip-path="url(#clip0_71_862)">
<path fill-rule="evenodd" clip-rule="evenodd" d="M25 6.98996V33.01C25.0001 33.347 24.9073 33.6775 24.7318 33.9652C24.5563 34.2529 24.3049 34.4867 24.0052 34.6409C23.7055 34.795 23.3692 34.8636 23.033 34.839C22.6969 34.8144 22.3741 34.6977 22.1 34.5016L11.1333 26.6666H6.66665C5.78259 26.6666 4.93474 26.3154 4.30962 25.6903C3.6845 25.0652 3.33331 24.2174 3.33331 23.3333V16.6666C3.33331 15.7826 3.6845 14.9347 4.30962 14.3096C4.93474 13.6845 5.78259 13.3333 6.66665 13.3333H11.1333L22.1 5.49996C22.374 5.30397 22.6966 5.18725 23.0326 5.16262C23.3686 5.13799 23.7048 5.20641 24.0045 5.36036C24.3041 5.51431 24.5555 5.74784 24.7312 6.03532C24.9068 6.32279 24.9998 6.65309 25 6.98996ZM21.6666 9.90663L13.07 16.0433C12.5052 16.4478 11.8281 16.6658 11.1333 16.6666H6.66665V23.3333H11.1333C11.8277 23.3332 12.5048 23.55 13.07 23.9533L21.6666 30.095V9.90663ZM30.425 11.435C30.7198 11.1057 31.1334 10.907 31.5747 10.8826C32.0161 10.8582 32.449 11.0101 32.7783 11.305C34.0028 12.3982 34.9823 13.7381 35.6524 15.2366C36.3225 16.7351 36.6682 18.3584 36.6666 20C36.6682 21.6415 36.3225 23.2648 35.6524 24.7633C34.9823 26.2618 34.0028 27.6017 32.7783 28.695C32.6156 28.8433 32.4252 28.958 32.218 29.0324C32.0107 29.1067 31.7908 29.1393 31.5709 29.1281C31.351 29.117 31.1355 29.0624 30.9368 28.9676C30.7382 28.8727 30.5603 28.7394 30.4134 28.5753C30.2666 28.4113 30.1536 28.2198 30.0812 28.0119C30.0088 27.8039 29.9783 27.5837 29.9914 27.364C30.0046 27.1442 30.0612 26.9292 30.1579 26.7314C30.2546 26.5336 30.3896 26.357 30.555 26.2116C31.4303 25.431 32.1304 24.4739 32.6092 23.4033C33.0881 22.3327 33.3349 21.1728 33.3333 20C33.3333 17.5333 32.2633 15.3166 30.555 13.7883C30.2257 13.4935 30.027 13.0799 30.0026 12.6386C29.9782 12.1972 30.1302 11.7643 30.425 11.435ZM29.445 15.0316C30.1446 15.6564 30.7042 16.422 31.0871 17.2782C31.4699 18.1345 31.6675 19.062 31.6666 20C31.6677 20.9379 31.4702 21.8655 31.0873 22.7218C30.7045 23.5781 30.1447 24.3437 29.445 24.9683C29.1289 25.249 28.718 25.3991 28.2954 25.3883C27.8728 25.3774 27.4702 25.2064 27.1689 24.9098C26.8677 24.6132 26.6904 24.2133 26.673 23.7909C26.6555 23.3686 26.7992 22.9554 27.075 22.635L27.2216 22.485C27.905 21.8716 28.3333 20.9866 28.3333 20C28.3353 19.1465 28.0082 18.3251 27.42 17.7066L27.2216 17.515C26.897 17.2189 26.7025 16.8066 26.6803 16.3678C26.6581 15.929 26.81 15.4992 27.1031 15.1719C27.3962 14.8446 27.8066 14.6462 28.2452 14.6199C28.6837 14.5937 29.1149 14.7416 29.445 15.0316Z" fill="white"/>
</g>
<defs>
<clipPath id="clip0_71_862">
<rect width="40" height="40" fill="white"/>
</clipPath>
</defs>
</svg>
