<svg width="36" height="36" viewBox="0 0 36 36" fill="none" xmlns="http://www.w3.org/2000/svg">
<path d="M18 33C18.929 33.0012 19.8352 32.7129 20.5927 32.1752C21.3503 31.6376 21.9215 30.8773 22.227 30H13.773C14.0785 30.8773 14.6497 31.6376 15.4073 32.1752C16.1648 32.7129 17.0711 33.0012 18 33ZM28.5 21.879V15C28.5 10.1745 25.2225 6.1095 20.7825 4.887C20.343 3.78 19.269 3 18 3C16.731 3 15.657 3.78 15.2175 4.887C10.7775 6.111 7.5 10.1745 7.5 15V21.879L4.9395 24.4395C4.79994 24.5786 4.68926 24.7438 4.61383 24.9259C4.5384 25.1079 4.49972 25.303 4.5 25.5V27C4.5 27.3978 4.65804 27.7794 4.93934 28.0607C5.22065 28.342 5.60218 28.5 6 28.5H30C30.3978 28.5 30.7794 28.342 31.0607 28.0607C31.342 27.7794 31.5 27.3978 31.5 27V25.5C31.5003 25.303 31.4616 25.1079 31.3862 24.9259C31.3107 24.7438 31.2001 24.5786 31.0605 24.4395L28.5 21.879Z" fill="white"/>
<circle cx="26.25" cy="8.25" r="5.25" fill="white" stroke="black" stroke-width="2"/>
</svg>
