<svg width="32" height="32" viewBox="0 0 32 32" fill="none" xmlns="http://www.w3.org/2000/svg">
<path fill-rule="evenodd" clip-rule="evenodd" d="M6.66661 6.66683C6.66661 6.31321 6.52613 5.97407 6.27608 5.72402C6.02603 5.47397 5.68689 5.3335 5.33327 5.3335C4.97965 5.3335 4.64051 5.47397 4.39046 5.72402C4.14041 5.97407 3.99994 6.31321 3.99994 6.66683V25.3335C3.99994 25.6871 4.14041 26.0263 4.39046 26.2763C4.64051 26.5264 4.97965 26.6668 5.33327 26.6668H26.6666C27.0202 26.6668 27.3594 26.5264 27.6094 26.2763C27.8595 26.0263 27.9999 25.6871 27.9999 25.3335C27.9999 24.9799 27.8595 24.6407 27.6094 24.3907C27.3594 24.1406 27.0202 24.0002 26.6666 24.0002H6.66661V6.66683ZM11.9999 16.0002C11.9999 15.6465 11.8595 15.3074 11.6094 15.0574C11.3594 14.8073 11.0202 14.6668 10.6666 14.6668C10.313 14.6668 9.97385 14.8073 9.7238 15.0574C9.47375 15.3074 9.33327 15.6465 9.33327 16.0002V20.0002C9.33327 20.3538 9.47375 20.6929 9.7238 20.943C9.97385 21.193 10.313 21.3335 10.6666 21.3335C11.0202 21.3335 11.3594 21.193 11.6094 20.943C11.8595 20.6929 11.9999 20.3538 11.9999 20.0002V16.0002ZM15.9999 8.00016C16.3536 8.00016 16.6927 8.14064 16.9427 8.39069C17.1928 8.64074 17.3333 8.97987 17.3333 9.3335V20.0002C17.3333 20.3538 17.1928 20.6929 16.9427 20.943C16.6927 21.193 16.3536 21.3335 15.9999 21.3335C15.6463 21.3335 15.3072 21.193 15.0571 20.943C14.8071 20.6929 14.6666 20.3538 14.6666 20.0002V9.3335C14.6666 8.97987 14.8071 8.64074 15.0571 8.39069C15.3072 8.14064 15.6463 8.00016 15.9999 8.00016ZM22.6666 13.3335C22.6666 12.9799 22.5261 12.6407 22.2761 12.3907C22.026 12.1406 21.6869 12.0002 21.3333 12.0002C20.9797 12.0002 20.6405 12.1406 20.3905 12.3907C20.1404 12.6407 19.9999 12.9799 19.9999 13.3335V20.0002C19.9999 20.3538 20.1404 20.6929 20.3905 20.943C20.6405 21.193 20.9797 21.3335 21.3333 21.3335C21.6869 21.3335 22.026 21.193 22.2761 20.943C22.5261 20.6929 22.6666 20.3538 22.6666 20.0002V13.3335Z" fill="#616161"/>
</svg>
