<svg width="32" height="32" viewBox="0 0 32 32" fill="none" xmlns="http://www.w3.org/2000/svg">
<path fill-rule="evenodd" clip-rule="evenodd" d="M14.3999 3.53333C14.8615 3.18714 15.423 3 15.9999 3C16.5769 3 17.1383 3.18714 17.5999 3.53333L26.9333 10.5333C27.2645 10.7817 27.5333 11.1038 27.7184 11.4741C27.9036 11.8444 27.9999 12.2527 27.9999 12.6667V25.3333C27.9999 26.0406 27.719 26.7189 27.2189 27.219C26.7188 27.719 26.0405 28 25.3333 28H6.66661C5.95936 28 5.28108 27.719 4.78099 27.219C4.28089 26.7189 3.99994 26.0406 3.99994 25.3333V12.6667C3.99994 12.2527 4.09633 11.8444 4.28147 11.4741C4.46661 11.1038 4.73542 10.7817 5.06661 10.5333L14.3999 3.53333ZM15.9999 5.66667L6.66661 12.6667V25.3333H25.3333V12.6667L15.9999 5.66667Z" fill="#616161"/>
</svg>
