<svg width="27" height="23" viewBox="0 0 27 23" fill="none" xmlns="http://www.w3.org/2000/svg">
<path d="M23.1875 12.2388L13.5 21.8333L3.8125 12.2388C3.17352 11.617 2.67021 10.8696 2.33425 10.0437C1.9983 9.21788 1.83698 8.3314 1.86045 7.44013C1.88393 6.54886 2.0917 5.6721 2.47066 4.86507C2.84963 4.05803 3.39159 3.33821 4.06242 2.75092C4.73325 2.16363 5.51841 1.7216 6.36847 1.45267C7.21852 1.18373 8.11505 1.09372 9.0016 1.18829C9.88815 1.28286 10.7455 1.55998 11.5197 2.00218C12.2939 2.44438 12.9682 3.04209 13.5 3.75767C14.0341 3.04729 14.7092 2.4548 15.4828 2.01729C16.2565 1.57978 17.1121 1.30667 17.9962 1.21505C18.8803 1.12344 19.7737 1.21528 20.6207 1.48485C21.4676 1.75441 22.2498 2.19588 22.9183 2.78164C23.5867 3.3674 24.1271 4.08483 24.5055 4.88903C24.884 5.69324 25.0924 6.5669 25.1177 7.45534C25.1429 8.34378 24.9845 9.22787 24.6524 10.0523C24.3203 10.8767 23.8216 11.6237 23.1875 12.2465" stroke="white" stroke-width="2" stroke-linecap="round" stroke-linejoin="round"/>
</svg>
