<svg width="32" height="32" viewBox="0 0 32 32" fill="none" xmlns="http://www.w3.org/2000/svg">
<g clip-path="url(#clip0_2051_120)">
<path d="M16 4C16.3399 4.00038 16.6668 4.13051 16.9139 4.3638C17.161 4.59709 17.3097 4.91594 17.3296 5.25519C17.3495 5.59445 17.2391 5.92851 17.021 6.18911C16.8029 6.44971 16.4935 6.6172 16.156 6.65733L16 6.66667H9.33337C9.0068 6.66671 8.69159 6.78661 8.44754 7.00362C8.2035 7.22063 8.04758 7.51967 8.00937 7.844L8.00004 8V24C8.00008 24.3266 8.11998 24.6418 8.33699 24.8858C8.55401 25.1299 8.85304 25.2858 9.17737 25.324L9.33337 25.3333H15.3334C15.6732 25.3337 16.0001 25.4638 16.2472 25.6971C16.4943 25.9304 16.643 26.2493 16.6629 26.5885C16.6829 26.9278 16.5725 27.2618 16.3544 27.5224C16.1362 27.783 15.8268 27.9505 15.4894 27.9907L15.3334 28H9.33337C8.31309 28.0001 7.33135 27.6102 6.58903 26.9103C5.8467 26.2103 5.3999 25.2532 5.34004 24.2347L5.33337 24V8C5.33332 6.97972 5.72314 5.99798 6.42309 5.25565C7.12303 4.51332 8.08018 4.06652 9.09871 4.00667L9.33337 4H16ZM23.6094 11.2853L27.38 15.0573C27.63 15.3074 27.7704 15.6464 27.7704 16C27.7704 16.3536 27.63 16.6926 27.38 16.9427L23.6094 20.7147C23.3592 20.9647 23.0199 21.1051 22.6662 21.1049C22.3125 21.1048 21.9734 20.9642 21.7234 20.714C21.4734 20.4638 21.333 20.1246 21.3331 19.7709C21.3332 19.4172 21.4739 19.078 21.724 18.828L23.2187 17.3333H16C15.6464 17.3333 15.3073 17.1929 15.0572 16.9428C14.8072 16.6928 14.6667 16.3536 14.6667 16C14.6667 15.6464 14.8072 15.3072 15.0572 15.0572C15.3073 14.8071 15.6464 14.6667 16 14.6667H23.2187L21.724 13.172C21.4739 12.922 21.3332 12.5828 21.3331 12.2291C21.333 11.8754 21.4734 11.5362 21.7234 11.286C21.9734 11.0358 22.3125 10.8952 22.6662 10.8951C23.0199 10.8949 23.3592 11.0353 23.6094 11.2853Z" fill="#616161"/>
</g>
<defs>
<clipPath id="clip0_2051_120">
<rect width="32" height="32" fill="white"/>
</clipPath>
</defs>
</svg>
