<svg width="28" height="24" viewBox="0 0 28 24" fill="none" xmlns="http://www.w3.org/2000/svg">
<path fill-rule="evenodd" clip-rule="evenodd" d="M13.9999 2.66667C7.8706 2.66667 3.33326 6.764 3.33326 11.3333C3.33326 14.0187 4.8546 16.496 7.38926 18.128C8.37326 18.7627 8.64126 19.9987 8.68526 21.0907C9.68926 20.6773 10.3626 19.544 11.5813 19.776C12.3573 19.9227 13.1666 20 13.9999 20C20.1293 20 24.6666 15.9027 24.6666 11.3333C24.6666 6.764 20.1293 2.66667 13.9999 2.66667ZM0.666595 11.3333C0.666595 4.85733 6.8746 0 13.9999 0C21.1253 0 27.3333 4.85733 27.3333 11.3333C27.3333 17.8093 21.1253 22.6667 13.9999 22.6667C13.1293 22.6667 12.2773 22.596 11.4519 22.46C11.3279 22.5573 11.1146 22.7333 10.8519 22.9187C10.0933 23.4533 8.9986 24 7.33326 24C6.97964 24 6.6405 23.8595 6.39045 23.6095C6.14041 23.3594 5.99993 23.0203 5.99993 22.6667C5.99993 21.9333 6.1906 21.0213 5.8746 20.3253C2.76926 18.2973 0.666595 15.064 0.666595 11.3333Z" fill="#616161"/>
</svg>
