<svg width="32" height="32" viewBox="0 0 32 32" fill="none" xmlns="http://www.w3.org/2000/svg">
<path fill-rule="evenodd" clip-rule="evenodd" d="M23.1066 5.40807L27.0879 6.73474C27.2541 6.79007 27.4077 6.87759 27.5401 6.99229C27.6724 7.107 27.7809 7.24665 27.8593 7.40327C27.9376 7.5599 27.9844 7.73042 27.9969 7.90511C28.0093 8.0798 27.9873 8.25524 27.9319 8.4214C27.8766 8.58757 27.7891 8.74121 27.6744 8.87356C27.5597 9.0059 27.42 9.11435 27.2634 9.19273C27.1068 9.2711 26.9363 9.31785 26.7616 9.33032C26.5869 9.34279 26.4114 9.32074 26.2453 9.2654L23.9999 8.51607V23.3334C23.9997 24.3445 23.6711 25.3283 23.0635 26.1365C22.456 26.9448 21.6023 27.5338 20.6311 27.815C19.6598 28.0962 18.6235 28.0543 17.6781 27.6957C16.7327 27.3371 15.9294 26.6811 15.389 25.8265C14.8486 24.9718 14.6004 23.9648 14.6817 22.957C14.7631 21.9491 15.1696 20.9949 15.8401 20.238C16.5105 19.4812 17.4087 18.9625 18.3994 18.7602C19.3901 18.5578 20.4197 18.6827 21.3333 19.1161V6.6854C21.3333 5.7654 22.2333 5.11607 23.1066 5.40807ZM19.3333 21.3334C18.8028 21.3334 18.2941 21.5441 17.9191 21.9192C17.544 22.2943 17.3333 22.803 17.3333 23.3334C17.3333 23.8638 17.544 24.3725 17.9191 24.7476C18.2941 25.1227 18.8028 25.3334 19.3333 25.3334C19.8637 25.3334 20.3724 25.1227 20.7475 24.7476C21.1226 24.3725 21.3333 23.8638 21.3333 23.3334C21.3333 22.803 21.1226 22.2943 20.7475 21.9192C20.3724 21.5441 19.8637 21.3334 19.3333 21.3334ZM10.6666 22.6667C11.0202 22.6667 11.3594 22.8072 11.6094 23.0573C11.8595 23.3073 11.9999 23.6465 11.9999 24.0001C11.9999 24.3537 11.8595 24.6928 11.6094 24.9429C11.3594 25.1929 11.0202 25.3334 10.6666 25.3334H5.33327C4.97965 25.3334 4.64051 25.1929 4.39046 24.9429C4.14041 24.6928 3.99994 24.3537 3.99994 24.0001C3.99994 23.6465 4.14041 23.3073 4.39046 23.0573C4.64051 22.8072 4.97965 22.6667 5.33327 22.6667H10.6666ZM13.3333 14.6667C13.6869 14.6667 14.026 14.8072 14.2761 15.0573C14.5261 15.3073 14.6666 15.6464 14.6666 16.0001C14.6666 16.3537 14.5261 16.6928 14.2761 16.9429C14.026 17.1929 13.6869 17.3334 13.3333 17.3334H5.33327C4.97965 17.3334 4.64051 17.1929 4.39046 16.9429C4.14041 16.6928 3.99994 16.3537 3.99994 16.0001C3.99994 15.6464 4.14041 15.3073 4.39046 15.0573C4.64051 14.8072 4.97965 14.6667 5.33327 14.6667H13.3333ZM17.3333 6.66674C17.6731 6.66712 18 6.79724 18.2471 7.03054C18.4942 7.26383 18.6429 7.58268 18.6628 7.92193C18.6828 8.26119 18.5724 8.59524 18.3543 8.85585C18.1361 9.11645 17.8267 9.28393 17.4893 9.32407L17.3333 9.33341H5.33327C4.99343 9.33303 4.66656 9.2029 4.41945 8.96961C4.17233 8.73632 4.02363 8.41747 4.00371 8.07821C3.98379 7.73896 4.09417 7.4049 4.31229 7.1443C4.53041 6.88369 4.83981 6.71621 5.17727 6.67607L5.33327 6.66674H17.3333Z" fill="#616161"/>
</svg>
