<svg width="32" height="32" viewBox="0 0 32 32" fill="none" xmlns="http://www.w3.org/2000/svg">
<path fill-rule="evenodd" clip-rule="evenodd" d="M16 2.6665C16.3536 2.6665 16.6928 2.80698 16.9428 3.05703C17.1928 3.30708 17.3333 3.64622 17.3333 3.99984V5.41584C18.2984 5.53568 19.2424 5.78783 20.1387 6.16517L20.8453 4.94117C20.9322 4.78831 21.0485 4.65415 21.1875 4.54641C21.3265 4.43868 21.4854 4.3595 21.6551 4.31342C21.8248 4.26735 22.0019 4.2553 22.1763 4.27797C22.3506 4.30063 22.5188 4.35756 22.6711 4.44549C22.8234 4.53341 22.9568 4.65058 23.0636 4.79026C23.1704 4.92995 23.2485 5.08938 23.2935 5.25938C23.3384 5.42937 23.3493 5.60658 23.3255 5.7808C23.3016 5.95502 23.2436 6.12281 23.1547 6.2745L22.4467 7.50117C23.22 8.08784 23.9107 8.77984 24.5 9.5545L25.7267 8.84517C25.8784 8.75624 26.0461 8.69819 26.2204 8.67437C26.3946 8.65055 26.5718 8.66143 26.7418 8.70637C26.9118 8.75132 27.0712 8.82944 27.2109 8.93626C27.3506 9.04307 27.4678 9.17645 27.5557 9.32873C27.6436 9.48101 27.7005 9.64918 27.7232 9.82356C27.7459 9.99793 27.7338 10.1751 27.6877 10.3448C27.6417 10.5145 27.5625 10.6734 27.4547 10.8123C27.347 10.9513 27.2129 11.0676 27.06 11.1545L25.8333 11.8612C26.2053 12.7425 26.4613 13.6838 26.584 14.6665H28C28.3536 14.6665 28.6928 14.807 28.9428 15.057C29.1929 15.3071 29.3333 15.6462 29.3333 15.9998C29.3333 16.3535 29.1929 16.6926 28.9428 16.9426C28.6928 17.1927 28.3536 17.3332 28 17.3332H26.584C26.4641 18.2982 26.212 19.2422 25.8347 20.1385L27.0587 20.8452C27.2115 20.9321 27.3457 21.0484 27.4534 21.1873C27.5611 21.3263 27.6403 21.4852 27.6864 21.6549C27.7325 21.8246 27.7445 22.0017 27.7219 22.1761C27.6992 22.3505 27.6423 22.5187 27.5543 22.6709C27.4664 22.8232 27.3492 22.9566 27.2096 23.0634C27.0699 23.1702 26.9104 23.2484 26.7405 23.2933C26.5705 23.3382 26.3932 23.3491 26.219 23.3253C26.0448 23.3015 25.877 23.2434 25.7253 23.1545L24.4987 22.4465C23.9105 23.2209 23.2197 23.9116 22.4453 24.4998L23.1547 25.7265C23.2436 25.8782 23.3016 26.046 23.3255 26.2202C23.3493 26.3944 23.3384 26.5716 23.2935 26.7416C23.2485 26.9116 23.1704 27.0711 23.0636 27.2107C22.9568 27.3504 22.8234 27.4676 22.6711 27.5555C22.5188 27.6434 22.3506 27.7004 22.1763 27.723C22.0019 27.7457 21.8248 27.7337 21.6551 27.6876C21.4854 27.6415 21.3265 27.5623 21.1875 27.4546C21.0485 27.3469 20.9322 27.2127 20.8453 27.0598L20.1387 25.8332C19.2425 26.2112 18.2985 26.4638 17.3333 26.5838V27.9998C17.3333 28.3535 17.1928 28.6926 16.9428 28.9426C16.6928 29.1927 16.3536 29.3332 16 29.3332C15.6464 29.3332 15.3072 29.1927 15.0572 28.9426C14.8071 28.6926 14.6667 28.3535 14.6667 27.9998V26.5838C13.7016 26.464 12.7576 26.2118 11.8613 25.8345L11.1547 27.0585C11.0677 27.2114 10.9515 27.3455 10.8125 27.4533C10.6735 27.561 10.5146 27.6402 10.3449 27.6863C10.1752 27.7323 9.99808 27.7444 9.82371 27.7217C9.64934 27.699 9.48117 27.6421 9.32889 27.5542C9.17661 27.4663 9.04322 27.3491 8.93641 27.2094C8.8296 27.0697 8.75147 26.9103 8.70652 26.7403C8.66158 26.5703 8.6507 26.3931 8.67453 26.2189C8.69835 26.0447 8.75639 25.8769 8.84532 25.7252L9.55332 24.4985C8.77898 23.9103 8.08821 23.2195 7.49999 22.4452L6.27332 23.1545C6.12163 23.2434 5.95384 23.3015 5.77962 23.3253C5.6054 23.3491 5.42819 23.3382 5.25819 23.2933C5.0882 23.2484 4.92877 23.1702 4.78908 23.0634C4.6494 22.9566 4.53223 22.8232 4.44431 22.6709C4.35638 22.5187 4.29945 22.3505 4.27679 22.1761C4.25412 22.0017 4.26617 21.8246 4.31224 21.6549C4.35831 21.4852 4.4375 21.3263 4.54523 21.1873C4.65297 21.0484 4.78713 20.9321 4.93999 20.8452L6.16666 20.1385C5.78841 19.2423 5.53537 18.2984 5.41466 17.3332H3.99999C3.64637 17.3332 3.30723 17.1927 3.05718 16.9426C2.80713 16.6926 2.66666 16.3535 2.66666 15.9998C2.66666 15.6462 2.80713 15.3071 3.05718 15.057C3.30723 14.807 3.64637 14.6665 3.99999 14.6665H5.41599C5.53583 13.7014 5.78798 12.7575 6.16532 11.8612L4.94132 11.1545C4.63758 10.9764 4.4166 10.6855 4.32661 10.3451C4.23661 10.0047 4.28491 9.6425 4.46096 9.33758C4.63701 9.03266 4.92651 8.80976 5.2663 8.71751C5.60609 8.62526 5.96858 8.67115 6.27466 8.84517L7.50132 9.55317C8.08799 8.77984 8.77999 8.08917 9.55466 7.49984L8.84532 6.27317C8.6713 5.96709 8.62541 5.60461 8.71766 5.26482C8.80991 4.92503 9.03281 4.63552 9.33773 4.45947C9.64265 4.28342 10.0048 4.23513 10.3452 4.32512C10.6856 4.41512 10.9766 4.6361 11.1547 4.93984L11.8613 6.1665C12.7575 5.78824 13.7015 5.5352 14.6667 5.4145V3.99984C14.6667 3.64622 14.8071 3.30708 15.0572 3.05703C15.3072 2.80698 15.6464 2.6665 16 2.6665ZM16 17.5398L9.83466 21.0998C10.4311 21.8181 11.1474 22.4276 11.952 22.9012L12.0493 22.9585C13.2532 23.6433 14.6149 24.0022 16 23.9998C17.2933 23.9998 18.5147 23.6932 19.596 23.1478L20.0493 22.9012C20.854 22.4277 21.57 21.8177 22.1653 21.0985L16 17.5398ZM14.6667 8.1105C13.8765 8.24301 13.111 8.49429 12.396 8.85584L12.0493 9.0425L11.952 9.0985C10.8929 9.72155 9.99067 10.5791 9.31466 11.6052L9.09866 11.9518L9.04266 12.0492C8.35745 13.253 7.99807 14.6147 7.99999 15.9998C7.99999 16.8398 8.12932 17.6532 8.37066 18.4132L8.49999 18.7905L14.6667 15.2305V8.1105ZM17.3333 8.1105V15.2305L23.5 18.7905C23.8318 17.8976 24.0011 16.9524 24 15.9998C24 14.7065 23.6933 13.4852 23.148 12.4038L22.9573 12.0492L22.9147 11.9758L22.9013 11.9518C22.2782 10.8928 21.4207 9.99055 20.3947 9.3145L19.9507 9.04117C19.2581 8.6471 18.5101 8.35943 17.732 8.18784L17.3333 8.1105Z" fill="white"/>
</svg>
