<svg width="25" height="25" viewBox="0 0 25 25" fill="none" xmlns="http://www.w3.org/2000/svg">
<path d="M19.5984 11.1382C15.7303 8.84104 9.34992 8.62986 5.65732 9.75057C5.06419 9.93048 4.4372 9.59581 4.25762 9.00279C4.07793 8.40944 4.41227 7.78277 5.00562 7.60255C9.2446 6.3159 16.2909 6.56438 20.744 9.20773C21.2775 9.52445 21.4522 10.2132 21.1362 10.7456C20.8198 11.279 20.1303 11.455 19.5982 11.1382M19.4716 14.5406C19.2003 14.981 18.6245 15.1191 18.1847 14.8487C14.96 12.8665 10.0425 12.2922 6.22724 13.4503C5.73255 13.5996 5.20992 13.3209 5.05967 12.8269C4.98805 12.5895 5.0135 12.3333 5.13045 12.1146C5.2474 11.8959 5.4463 11.7325 5.68354 11.6602C10.0418 10.3376 15.46 10.9781 19.1638 13.2543C19.6036 13.5252 19.742 14.1012 19.4716 14.5406ZM18.0033 17.8081C17.9522 17.8921 17.885 17.9651 17.8056 18.0231C17.7263 18.081 17.6362 18.1228 17.5407 18.1459C17.4452 18.169 17.346 18.173 17.2489 18.1578C17.1518 18.1425 17.0587 18.1083 16.9749 18.057C14.157 16.3348 10.6101 15.9458 6.43305 16.9C6.33734 16.9219 6.23825 16.9247 6.14145 16.9083C6.04465 16.8918 5.95204 16.8565 5.86889 16.8043C5.78575 16.7521 5.7137 16.684 5.65688 16.6039C5.60005 16.5239 5.55956 16.4334 5.5377 16.3377C5.5157 16.2419 5.51279 16.1428 5.52916 16.0459C5.54553 15.9491 5.58084 15.8564 5.63309 15.7732C5.68533 15.69 5.75347 15.6179 5.83361 15.5611C5.91374 15.5043 6.0043 15.4638 6.1001 15.442C10.6712 14.3972 14.5921 14.8468 17.7551 16.7796C17.839 16.8308 17.9119 16.8981 17.9698 16.9775C18.0276 17.0569 18.0693 17.1469 18.0923 17.2424C18.1154 17.3379 18.1194 17.437 18.1041 17.5341C18.0889 17.6312 18.0545 17.7243 18.0033 17.8081ZM12.4998 0.5C5.87269 0.5 0.5 5.87248 0.5 12.4998C0.5 19.1277 5.87269 24.5 12.4999 24.5C19.1274 24.5 24.5 19.1277 24.5 12.4998C24.5 5.87258 19.1274 0.5 12.4998 0.5Z" fill="#1ED660"/>
</svg>
